<svg width="84" height="76" viewBox="0 0 84 76" fill="none" xmlns="http://www.w3.org/2000/svg">
<path d="M54.0508 16.2915V17.1571C56.3711 18.0079 56.7231 19.9004 56.716 24.9104L56.6585 62.0852C56.6585 66.3469 60.0277 69.8018 64.2015 69.8091H64.69L64.7618 24.925C64.769 19.8491 65.1282 17.9639 67.5204 17.1351V16.3135L54.058 16.2915H54.0508Z" fill="white"/>
<path d="M26.6088 27.9471C24.7697 28.6439 23.0743 29.6928 21.616 31.0279C20.2439 32.3042 19.1376 33.8446 18.3546 35.5537C16.7095 39.434 16.7885 43.8498 18.5629 47.6641C19.4968 49.5712 20.8546 51.2363 22.5212 52.5126C24.2453 53.9063 27.4205 55.8722 32.0541 58.3955C33.8428 59.3417 35.5813 60.376 37.2623 61.4983C38.6057 62.3638 39.8772 63.3541 41.0625 64.4397C41.8671 65.1512 42.5209 66.0241 42.9734 67.007C43.3183 67.8285 43.4907 68.7088 43.4907 69.6037C43.4907 70.6233 43.2536 71.6208 42.801 72.5231C42.3269 73.462 41.6947 74.3129 40.9189 75.0244C40.5238 75.3838 40.0999 75.7065 39.6473 75.9853C50.0495 76.3447 52.3555 67.6158 48.7995 61.2782C46.7234 57.5739 41.9964 55.0286 38.4476 52.8207C37.248 52.0799 37.0181 51.9185 35.725 51.119C34.4319 50.3268 33.2466 49.6079 32.1403 48.9404C31.0483 48.2656 30.1216 47.6934 29.3458 47.224C28.5699 46.7398 28.103 46.4464 27.9162 46.3364C26.6375 45.3608 25.5671 44.1359 24.7554 42.7275C24.1088 41.5612 23.7568 40.2409 23.7424 38.9059C23.7424 37.8202 23.9795 36.742 24.4321 35.7591C24.899 34.7395 25.5671 33.8372 26.4004 33.089C27.3271 32.2895 28.3975 31.6733 29.5541 31.2772C30.9047 30.8078 32.3127 30.5804 33.7351 30.6024C36.2781 30.5657 38.7925 31.1819 41.0482 32.3849C42.0826 32.9277 43.0525 33.6025 43.9361 34.38C44.7478 35.1062 45.4518 35.9571 46.0122 36.896C46.6372 37.989 47.1257 39.1479 47.4705 40.3582C47.9374 41.9426 48.2966 43.5564 48.5624 45.1921H50.2434L50.2722 26.8395H48.5911C48.5409 27.6757 48.2607 28.4825 47.7794 29.1647C47.3986 29.5608 46.867 29.7735 46.3211 29.7369C45.7751 29.6928 45.2291 29.5902 44.7047 29.4288C43.9576 29.2087 43.0022 28.908 41.8168 28.5559C38.6201 27.595 35.7034 26.7808 32.6791 26.7734C30.7323 26.7734 28.7424 27.1035 26.6016 27.9397" fill="white"/>
<path d="M18.2324 0.0293408L0.0862054 0V0.894894C0.754297 1.1663 1.32182 1.48905 1.76003 2.02452C2.47122 2.91207 2.81604 5.91951 2.81604 9.00762L2.75857 46.1751C2.75857 49.0431 2.46404 52.1973 1.89652 53.0335C1.43676 53.723 0.790216 54.0457 0 54.3758V55.1754L13.0673 55.1974C12.8087 54.7793 12.5716 54.3538 12.3561 53.9064C11.8748 52.9235 11.5228 51.8819 11.3001 50.8109C10.9553 49.2925 10.8116 47.7448 10.8691 46.1898L10.905 26.3994L10.9409 3.33018C13.1032 2.76537 15.3374 2.48663 17.5715 2.51597C19.6261 2.48663 21.6735 2.78738 23.6347 3.3962C25.2295 3.88766 26.7093 4.68719 28.0096 5.74346C29.1374 6.6677 30.0354 7.84133 30.646 9.17634C32.2193 12.6606 31.9391 16.915 29.0943 19.563C34.0009 23.2526 37.2551 21.7122 38.5769 17.9859C40.0065 13.7828 39.1444 9.11765 36.3212 5.72879C35.4951 4.73854 34.5325 3.87299 33.4692 3.16147C32.3055 2.39861 31.0411 1.80446 29.7193 1.40102C28.0886 0.909565 26.422 0.56481 24.7338 0.36676C22.7079 0.146704 20.6749 0.0293408 18.6419 0.0293408C18.5054 0.0293408 18.3689 0.0293408 18.2396 0.0293408" fill="white"/>
<path d="M76.1482 70.1025C79.2111 70.1025 81.6941 67.5672 81.6941 64.4398C81.6941 61.3123 79.2111 58.777 76.1482 58.777C73.0853 58.777 70.6023 61.3123 70.6023 64.4398C70.6023 67.5672 73.0853 70.1025 76.1482 70.1025Z" fill="#E26026"/>
</svg>
